<?xml version="1.0" encoding="utf-8"?>
<!-- Generator: Adobe Illustrator 23.1.1, SVG Export Plug-In . SVG Version: 6.00 Build 0)  -->
<svg version="1.1" id="Layer_1" xmlns="http://www.w3.org/2000/svg" xmlns:xlink="http://www.w3.org/1999/xlink" x="0px" y="0px"
	 viewBox="0 0 440.77 172" style="enable-background:new 0 0 440.77 172;" xml:space="preserve">
<style type="text/css">
	.st0{fill:#FFFFFF;}
</style>
<g>
	<path class="st0" d="M129.65,12.79c-12.77-7.66-27.61-12.02-43.6-12.02c-16.1,0-31.38,4.51-44.2,12.37
		c-3.84,2.37-6.01,4.27-6.01,6.7c0,7.19,16.8,14.92,46.59,14.92c29.48,0,52.35-8.46,52.35-16.62
		C134.79,16.2,133.09,14.84,129.65,12.79 M142.34,22.25c0.36,0.56,0.54,1.16,0.54,1.97c0,9.47-28.97,26.22-75.09,26.22
		c-33.88,0-40.23-12.57-40.23-20.57c0-2.86,1.1-5.79,3.51-8.76c0.13-0.18,0.02-0.25-0.13-0.11c-4.4,3.73-8.44,7.93-11.99,12.46
		c-1.7,2.14-2.75,4.04-2.75,5.18c0,16.57,41.54,28.59,80.38,28.59c41.39,0,59.86-13.51,59.86-25.4c0-4.24-1.65-6.72-5.87-11.52
		c-2.75-3.13-5.34-5.67-8.09-8.17C142.34,22.03,142.25,22.12,142.34,22.25z M9.04,49.44c-2.5,4.96-5.27,13.33-6.1,17.67
		c-0.36,1.85-0.2,2.75,0.45,4.13c5.23,11.1,31.67,28.86,93.36,28.86c37.63,0,66.87-9.25,71.61-26.13c0.87-3.1,0.92-6.39-0.2-10.81
		c-1.25-4.94-3.6-10.7-5.58-14.74c-0.07-0.13-0.18-0.11-0.16,0.04c0.74,22.13-60.97,36.41-92.11,36.41
		c-33.73,0-61.87-13.45-61.87-30.42c0-1.63,0.34-3.26,0.76-4.96C9.24,49.33,9.11,49.3,9.04,49.44z M68.92,120.17
		C25.3,120.17,4.73,99.84,1,85.97c-0.04-0.2-0.18-0.16-0.18,0.02c0,4.67,0.47,10.7,1.27,14.7c0.38,1.94,1.97,5,4.29,7.44
		c10.56,11.01,36.9,26.45,82.51,26.45c62.14,0,76.34-20.7,79.24-27.52c2.08-4.87,3.15-13.67,3.15-21.06c0-1.79-0.05-3.22-0.11-4.62
		c0-0.22-0.13-0.25-0.18-0.02C167.89,98.02,114.8,120.17,68.92,120.17z M91.84,157.67c20.97,0,44.02-5.72,57.8-17.04
		c3.77-3.08,7.37-7.19,10.59-12.71c1.85-3.17,3.66-6.95,5.14-10.65c0.07-0.18-0.04-0.27-0.18-0.07
		c-12.82,18.87-49.94,30.64-88.27,30.64c-27.09,0-56.24-8.67-67.65-25.22c-0.11-0.16-0.22-0.09-0.16,0.09
		C19.74,145.32,51.99,157.67,91.84,157.67z M33.79,153.32c14.45,11.19,32.59,17.91,52.26,17.91c21.53,0,41.16-7.99,56.15-21.13
		c0.18-0.16,0.09-0.27-0.09-0.16c-6.72,4.49-25.89,14.29-56.06,14.29c-26.22,0-42.79-5.85-52.15-11.08
		C33.72,153.07,33.65,153.21,33.79,153.32z"/>
	<path class="st0" d="M223.38,28.78h7.83l17.81,47.23h-8.3l-3.91-11.27h-19.3l-3.84,11.27h-8.1L223.38,28.78 M219.87,57.99h14.64
		l-7.35-21.25L219.87,57.99z"/>
	<polyline class="st0" points="257.65,35.86 242.74,35.86 242.74,28.78 280.32,28.78 280.32,35.86 265.41,35.86 265.41,76.01 
		257.65,76.01 257.65,35.86 	"/>
	<path class="st0" d="M293.88,76.75c-4.41,0-7.94-1.15-10.59-3.44s-3.98-5.33-3.98-9.11c0-2.7,0.88-5.21,2.63-7.52
		c1.75-2.32,4.36-4.37,7.83-6.17c-2.21-2.34-3.72-4.32-4.56-5.94c-0.83-1.62-1.25-3.37-1.25-5.26c0-3.33,1.23-6.04,3.68-8.13
		c2.45-2.09,5.61-3.14,9.48-3.14c3.87,0,6.96,0.97,9.28,2.9s3.47,4.5,3.47,7.69c0,4.54-3.51,8.7-10.52,12.48l8.77,9.24
		c0.9-1.3,1.8-2.79,2.7-4.45l2.77-5.19h7.02L316.63,58c-1.03,1.94-2.38,4.14-4.05,6.61l11.13,11.4h-9.04l-6.14-6.27
		c-2.02,2.39-4.23,4.15-6.61,5.3C299.53,76.18,296.85,76.75,293.88,76.75 M294.76,70.68c3.64,0,6.79-1.66,9.45-4.99l-10.73-11.2
		c-2.34,1.44-4.06,2.89-5.16,4.35s-1.65,3.05-1.65,4.76c0,2.11,0.73,3.82,2.19,5.13C290.32,70.03,292.28,70.68,294.76,70.68z
		 M290.85,39.1c0,1.21,0.3,2.35,0.91,3.41c0.61,1.06,1.9,2.64,3.88,4.76c2.61-1.53,4.49-2.95,5.63-4.25
		c1.15-1.3,1.72-2.65,1.72-4.05c0-1.53-0.53-2.77-1.59-3.71s-2.46-1.42-4.22-1.42c-1.89,0-3.42,0.48-4.59,1.45
		C291.43,36.26,290.85,37.53,290.85,39.1z"/>
	<polyline class="st0" points="332.95,35.86 318.04,35.86 318.04,28.78 355.62,28.78 355.62,35.86 340.7,35.86 340.7,76.01 
		332.95,76.01 332.95,35.86 	"/>
	<path class="st0" d="M210.29,96.02h16.33c4.63,0,8.19,1.07,10.66,3.2s3.71,5.22,3.71,9.26c0,2.43-0.7,4.62-2.09,6.57
		c-1.4,1.95-3.24,3.31-5.53,4.08c2.83,0.54,5.04,1.8,6.61,3.78c1.57,1.98,2.36,4.53,2.36,7.63c0,2.57-0.61,4.82-1.82,6.76
		c-1.21,1.94-2.9,3.41-5.06,4.43c-2.16,1.01-4.66,1.52-7.49,1.52h-17.68L210.29,96.02 M213.8,99.26v18.55h12.82
		c3.42,0,6.06-0.82,7.93-2.46c1.87-1.64,2.8-3.92,2.8-6.85c0-2.97-0.93-5.25-2.8-6.85s-4.51-2.39-7.93-2.39L213.8,99.26L213.8,99.26
		z M213.8,121.05v18.96h14.17c3.37,0,6-0.83,7.89-2.5c1.89-1.66,2.83-4,2.83-7.02c0-6.3-4.02-9.45-12.08-9.45H213.8V121.05z"/>
	<path class="st0" d="M275.4,108.43v34.81h-2.77l-0.54-4.32c-4.09,3.33-8.32,4.99-12.69,4.99c-3.87,0-6.79-1.16-8.77-3.47
		c-1.98-2.32-2.97-5.75-2.97-10.29v-21.73h3.37v21.39c0,7.29,3.06,10.93,9.18,10.93c4,0,7.94-1.64,11.81-4.93v-27.39h3.38"/>
	<path class="st0" d="M291.99,143.92c-2.34,0-4.47-0.26-6.38-0.78s-3.79-1.34-5.63-2.46l1.15-2.77c3.69,1.98,7.24,2.97,10.66,2.97
		c2.92,0,5.17-0.57,6.75-1.72c1.57-1.15,2.36-2.78,2.36-4.89c0-1.75-0.62-3.16-1.86-4.22s-3.43-2.06-6.58-3l-1.82-0.54
		c-3.51-1.03-5.99-2.28-7.46-3.74c-1.46-1.46-2.19-3.41-2.19-5.84c0-2.7,1.05-4.9,3.14-6.61c2.09-1.71,4.78-2.56,8.06-2.56
		c3.91,0,7.6,0.97,11.06,2.9l-1.08,2.7c-3.24-1.71-6.59-2.56-10.05-2.56c-2.34,0-4.21,0.54-5.6,1.62s-2.09,2.52-2.09,4.32
		c0,1.13,0.24,2.08,0.71,2.87s1.24,1.49,2.29,2.12c1.06,0.63,2.51,1.21,4.35,1.75l1.82,0.54c3.91,1.12,6.68,2.44,8.3,3.95
		s2.43,3.54,2.43,6.11c0,3.02-1.11,5.41-3.34,7.19C298.77,143.03,295.77,143.92,291.99,143.92"/>
	<path class="st0" d="M309.4,97.3c0-0.72,0.24-1.3,0.71-1.75s1.09-0.67,1.86-0.67c0.76,0,1.38,0.23,1.86,0.67
		c0.47,0.45,0.71,1.03,0.71,1.75s-0.24,1.3-0.71,1.75s-1.09,0.67-1.86,0.67s-1.38-0.22-1.86-0.67
		C309.63,98.6,309.4,98.02,309.4,97.3 M310.27,108.43h3.37v34.81h-3.37V108.43z"/>
	<path class="st0" d="M321.61,143.25v-34.81h2.77l0.47,4.32c4.18-3.33,8.48-4.99,12.89-4.99c3.87,0,6.8,1.16,8.8,3.47
		c2,2.32,3,5.75,3,10.29v21.73h-3.37v-21.39c0-7.29-3.08-10.93-9.24-10.93c-4.18,0-8.16,1.64-11.94,4.93v27.39h-3.38"/>
	<path class="st0" d="M371.2,143.92c-3.46,0-6.48-0.79-9.04-2.36c-2.56-1.57-4.53-3.72-5.9-6.44s-2.06-5.81-2.06-9.28
		c0-3.55,0.72-6.71,2.16-9.48c1.44-2.77,3.35-4.89,5.73-6.38c2.38-1.48,4.99-2.23,7.83-2.23c2.92,0,5.47,0.7,7.66,2.09
		c2.18,1.39,3.86,3.31,5.03,5.74s1.75,5.17,1.75,8.23c0,0.99-0.04,1.98-0.13,2.97h-26.58c0.14,2.83,0.81,5.32,2.02,7.46
		c1.21,2.14,2.82,3.78,4.82,4.93s4.24,1.72,6.71,1.72c2.29,0,4.25-0.21,5.87-0.64c1.62-0.43,3.33-1.16,5.13-2.19l1.21,2.56
		c-1.84,1.17-3.72,2.01-5.63,2.53C375.86,143.66,373.67,143.92,371.2,143.92 M369.92,110.79c-2.2,0-4.2,0.57-5.97,1.72
		c-1.78,1.15-3.2,2.72-4.28,4.72s-1.73,4.24-1.96,6.71h23.21v-0.54c0-2.43-0.47-4.63-1.42-6.61c-0.94-1.98-2.24-3.47-3.88-4.49
		C373.97,111.3,372.07,110.79,369.92,110.79z"/>
	<path class="st0" d="M400.34,143.92c-2.34,0-4.47-0.26-6.38-0.78s-3.79-1.34-5.63-2.46l1.15-2.77c3.69,1.98,7.24,2.97,10.66,2.97
		c2.92,0,5.17-0.57,6.75-1.72c1.57-1.15,2.36-2.78,2.36-4.89c0-1.75-0.62-3.16-1.85-4.22c-1.24-1.06-3.43-2.06-6.58-3l-1.82-0.54
		c-3.51-1.03-5.99-2.28-7.46-3.74c-1.46-1.46-2.19-3.41-2.19-5.84c0-2.7,1.05-4.9,3.14-6.61c2.09-1.71,4.78-2.56,8.06-2.56
		c3.91,0,7.6,0.97,11.06,2.9l-1.08,2.7c-3.24-1.71-6.59-2.56-10.05-2.56c-2.34,0-4.21,0.54-5.6,1.62c-1.4,1.08-2.09,2.52-2.09,4.32
		c0,1.13,0.24,2.08,0.71,2.87s1.24,1.49,2.29,2.12c1.06,0.63,2.51,1.21,4.35,1.75l1.82,0.54c3.91,1.12,6.68,2.44,8.3,3.95
		s2.43,3.54,2.43,6.11c0,3.02-1.11,5.41-3.34,7.19C407.12,143.03,404.12,143.92,400.34,143.92"/>
	<path class="st0" d="M428.21,143.92c-2.34,0-4.46-0.26-6.38-0.78c-1.91-0.52-3.79-1.34-5.63-2.46l1.15-2.77
		c3.69,1.98,7.24,2.97,10.66,2.97c2.92,0,5.17-0.57,6.75-1.72c1.57-1.15,2.36-2.78,2.36-4.89c0-1.75-0.62-3.16-1.85-4.22
		c-1.24-1.06-3.43-2.06-6.58-3l-1.82-0.54c-3.51-1.03-5.99-2.28-7.45-3.74c-1.46-1.46-2.19-3.41-2.19-5.84c0-2.7,1.05-4.9,3.14-6.61
		c2.09-1.71,4.78-2.56,8.06-2.56c3.91,0,7.6,0.97,11.07,2.9l-1.08,2.7c-3.24-1.71-6.59-2.56-10.05-2.56c-2.34,0-4.21,0.54-5.6,1.62
		c-1.4,1.08-2.09,2.52-2.09,4.32c0,1.13,0.24,2.08,0.71,2.87s1.24,1.49,2.29,2.12c1.06,0.63,2.51,1.21,4.35,1.75l1.82,0.54
		c3.91,1.12,6.68,2.44,8.3,3.95s2.43,3.54,2.43,6.11c0,3.02-1.11,5.41-3.34,7.19C434.99,143.03,431.98,143.92,428.21,143.92"/>
</g>
</svg>
