<?xml version="1.0" encoding="utf-8"?>
<!-- Generator: Adobe Illustrator 23.1.1, SVG Export Plug-In . SVG Version: 6.00 Build 0)  -->
<svg version="1.1" id="Layer_1" xmlns="http://www.w3.org/2000/svg" xmlns:xlink="http://www.w3.org/1999/xlink" x="0px" y="0px"
	 viewBox="0 0 435.09 110.57" style="enable-background:new 0 0 435.09 110.57;" xml:space="preserve">
<style type="text/css">
	.st0{fill:#FFFFFF;}
</style>
<g>
	<path class="st0" d="M236.32,51.46c-1.46-0.49-3-1-4.5-1.41c-1.49-0.42-2.94-0.98-4.33-1.65c-1.24-0.59-2.37-1.41-3.32-2.4
		c-0.98-1.1-1.5-2.53-1.46-4c-0.04-2.17,0.99-4.22,2.75-5.49c1.91-1.38,4.22-2.08,6.57-2c2.15,0.02,4.28,0.45,6.27,1.27
		c1.83,0.75,3.55,1.73,5.12,2.92l6.08-12.12c-3.07-1.57-6.29-2.8-9.62-3.67c-7.63-2-14.88-1.89-20.41,0.21
		c-5.45,1.92-9.79,6.15-11.86,11.55c-1.11,2.93-1.66,6.05-1.61,9.19c-0.1,2.84,0.42,5.67,1.52,8.29c0.94,2.05,2.3,3.87,4,5.35
		c1.71,1.47,3.64,2.65,5.72,3.5c2.28,0.92,4.61,1.76,6.91,2.49c2,0.68,3.7,1.34,5.2,1.94c1.32,0.5,2.57,1.17,3.71,2
		c0.95,0.69,1.72,1.6,2.24,2.65c0.48,1.06,0.71,2.2,0.69,3.36c-0.02,2.19-0.96,4.26-2.6,5.71c-1.7,1.61-4.24,2.43-7.56,2.43
		c-2.93-0.04-5.82-0.69-8.48-1.92c-2.63-1.23-5.09-2.81-7.29-4.7l-6.61,12.68c6.83,4.72,14.93,7.25,23.23,7.25
		c3.79,0.06,7.57-0.51,11.18-1.69c3.03-0.99,5.82-2.6,8.21-4.71c2.19-2,3.9-4.47,5-7.22c1.18-3.04,1.76-6.27,1.72-9.53
		c0-5.14-1.3-9.35-3.88-12.51C246.33,56.07,242.07,53.41,236.32,51.46"/>
	<path class="st0" d="M309.89,59.23c-2.62-3.21-6.87-5.82-12.62-7.77c-1.46-0.49-3-1-4.5-1.41c-1.49-0.42-2.94-0.98-4.33-1.65
		c-1.24-0.59-2.37-1.41-3.32-2.4c-0.98-1.1-1.5-2.53-1.46-4c-0.04-2.17,0.99-4.22,2.75-5.49c1.91-1.38,4.22-2.08,6.57-2
		c2.15,0.02,4.28,0.45,6.27,1.27c1.83,0.75,3.54,1.73,5.12,2.92l6.08-12.12c-3.07-1.57-6.29-2.8-9.62-3.67
		c-7.63-2-14.88-1.89-20.41,0.21c-5.46,1.92-9.79,6.15-11.86,11.55c-1.13,2.94-1.68,6.06-1.64,9.21c-0.1,2.84,0.42,5.67,1.52,8.29
		c0.94,2.05,2.3,3.87,4,5.35c1.71,1.47,3.66,2.64,5.75,3.48c2.28,0.92,4.61,1.76,6.91,2.49c2,0.68,3.7,1.34,5.2,1.94
		c1.32,0.5,2.56,1.17,3.7,2c0.96,0.69,1.73,1.6,2.25,2.65c0.48,1.05,0.71,2.2,0.69,3.36c-0.02,2.19-0.96,4.26-2.6,5.71
		c-1.7,1.61-4.24,2.43-7.56,2.43c-2.93-0.03-5.82-0.69-8.48-1.92c-2.63-1.22-5.09-2.78-7.3-4.66l-6.62,12.68
		c6.83,4.72,14.94,7.25,23.24,7.25c3.79,0.06,7.57-0.51,11.18-1.69c3.03-1.01,5.82-2.62,8.2-4.75c2.19-2,3.9-4.47,5-7.22
		c1.18-3.04,1.76-6.27,1.72-9.53C313.77,66.6,312.47,62.39,309.89,59.23"/>
	<polygon class="st0" points="122.97,22.86 122.97,93.58 138.22,93.58 138.22,62.37 156.5,82.29 174.31,62.47 174.59,93.58 
		189.6,93.58 189.6,22.86 156.52,60.4 	"/>
	<polygon class="st0" points="51.29,50.63 15.26,50.63 15.26,23.19 0.01,23.19 0.01,50.63 0,50.63 0,66.14 0.01,66.14 0.01,93.58 
		15.26,93.58 15.26,66.14 51.29,66.14 51.29,93.58 66.63,93.58 66.63,23.19 51.29,23.19 	"/>
	<rect x="87.14" y="23.19" class="st0" width="15.34" height="70.39"/>
	<path class="st0" d="M379.8,0c-30.54,0-55.29,24.75-55.29,55.29s24.75,55.29,55.29,55.29c30.54,0,55.29-24.75,55.29-55.29v-0.01
		C435.09,24.75,410.34,0,379.81,0H379.8z M375.57,76.22h-27.81L346,71.63l0.35-0.34c4.27-4.13,8.26-8.54,11.96-13.19
		c3.93-5.14,5.84-8.9,5.84-11.49c0-3.31-2.56-3.81-4.09-3.81c-2.07,0-4.88,0.74-8.57,2.26l-0.68,0.27l-3.4-7.4l0.61-0.35
		c4.07-2.3,8.64-3.56,13.31-3.67c7.85,0,12.92,4.34,12.92,11.05c0,4-1.66,8.31-5.09,13.26c-2.36,3.36-4.96,6.53-7.8,9.49h14.21
		V76.22z M398.57,76.66c-10.51,0-16.78-8-16.78-21.29s6.21-21.29,16.75-21.29c10.54,0,16.56,8,16.56,21.29s-6.19,21.29-16.56,21.29
		H398.57z"/>
	<path class="st0" d="M398.49,42.58c-4.61,0-6.84,4.18-6.84,12.79s2.23,12.78,6.84,12.78c1.65,0,6.67,0,6.67-12.78
		S400.14,42.58,398.49,42.58"/>
</g>
</svg>
