<?xml version="1.0" encoding="utf-8"?>
<!-- Generator: Adobe Illustrator 23.1.1, SVG Export Plug-In . SVG Version: 6.00 Build 0)  -->
<svg version="1.1" id="Layer_1" xmlns="http://www.w3.org/2000/svg" xmlns:xlink="http://www.w3.org/1999/xlink" x="0px" y="0px"
	 viewBox="0 0 383.36 156" style="enable-background:new 0 0 383.36 156;" xml:space="preserve">
<style type="text/css">
	.st0{fill:#1FADE3;}
</style>
<path class="st0" d="M114.33,17.65C103.54,11.18,91.01,7.5,77.5,7.5c-13.6,0-26.51,3.81-37.34,10.45c-3.25,2-5.08,3.6-5.08,5.66
	c0,6.08,14.19,12.6,39.36,12.6c24.91,0,44.23-7.15,44.23-14.04C118.67,20.54,117.24,19.39,114.33,17.65z M125.05,25.65
	c0.3,0.47,0.45,0.98,0.45,1.66c0,8-24.47,22.15-63.43,22.15c-28.62,0-33.98-10.62-33.98-17.38c0-2.42,0.92-4.89,2.96-7.4
	c0.11-0.15,0.02-0.21-0.11-0.09c-3.72,3.15-7.13,6.7-10.13,10.53c-1.43,1.81-2.32,3.42-2.32,4.38c0,14,35.09,24.15,67.91,24.15
	c34.96,0,50.57-11.41,50.57-21.45c0-3.59-1.4-5.68-4.96-9.74c-2.32-2.64-4.51-4.79-6.83-6.91
	C125.05,25.46,124.97,25.54,125.05,25.65z M12.44,48.61c-2.11,4.19-4.45,11.26-5.15,14.92c-0.3,1.57-0.17,2.32,0.38,3.49
	C12.09,76.4,34.42,91.4,86.54,91.4c31.79,0,56.49-7.81,60.49-22.08c0.74-2.62,0.77-5.4-0.17-9.13c-1.06-4.17-3.04-9.04-4.72-12.45
	c-0.06-0.11-0.15-0.09-0.13,0.04c0.62,18.7-51.51,30.76-77.81,30.76c-28.49,0-52.26-11.36-52.26-25.7c0-1.38,0.28-2.75,0.64-4.19
	C12.61,48.52,12.5,48.5,12.44,48.61z M63.03,108.37c-36.85,0-54.23-17.17-57.38-28.89C5.61,79.31,5.5,79.35,5.5,79.5
	c0,3.94,0.4,9.04,1.08,12.41c0.32,1.64,1.66,4.23,3.62,6.28c8.92,9.3,31.17,22.34,69.7,22.34c52.49,0,64.49-17.49,66.94-23.24
	c1.75-4.11,2.66-11.55,2.66-17.79c0-1.51-0.04-2.72-0.09-3.91c0-0.19-0.11-0.21-0.15-0.02C146.63,89.65,101.78,108.37,63.03,108.37z
	 M82.39,140.05c17.72,0,37.19-4.83,48.83-14.4c3.19-2.6,6.23-6.07,8.94-10.74c1.57-2.68,3.09-5.87,4.34-9
	c0.06-0.15-0.04-0.23-0.15-0.06c-10.83,15.94-42.19,25.89-74.57,25.89c-22.89,0-47.51-7.32-57.15-21.3
	c-0.09-0.13-0.19-0.08-0.13,0.08C21.48,129.61,48.73,140.05,82.39,140.05z M33.35,136.37c12.21,9.45,27.53,15.13,44.15,15.13
	c18.19,0,34.77-6.75,47.43-17.85c0.15-0.13,0.08-0.23-0.08-0.13c-5.68,3.79-21.87,12.08-47.36,12.08c-22.15,0-36.15-4.94-44.06-9.36
	C33.29,136.16,33.24,136.27,33.35,136.37z"/>
<g>
	<path d="M193.51,31.16h6.61l15.05,39.9h-7.01l-3.31-9.52h-16.3l-3.25,9.52h-6.84L193.51,31.16z M190.54,55.84h12.37l-6.21-17.95
		L190.54,55.84z"/>
	<path d="M222.46,37.15h-12.6v-5.98h31.75v5.98h-12.6v33.91h-6.55V37.15z"/>
	<path d="M253.07,71.69c-3.72,0-6.71-0.97-8.95-2.91c-2.24-1.94-3.36-4.5-3.36-7.69c0-2.28,0.74-4.4,2.22-6.35
		c1.48-1.96,3.68-3.69,6.61-5.22c-1.86-1.98-3.14-3.65-3.85-5.02c-0.7-1.37-1.05-2.85-1.05-4.45c0-2.81,1.03-5.1,3.11-6.87
		c2.07-1.77,4.74-2.65,8.01-2.65s5.88,0.82,7.84,2.45s2.94,3.8,2.94,6.5c0,3.84-2.96,7.35-8.89,10.54l7.41,7.81
		c0.76-1.1,1.52-2.36,2.28-3.76l2.34-4.39h5.93l-3.36,6.16c-0.87,1.63-2.01,3.5-3.42,5.59l9.4,9.63h-7.64l-5.19-5.3
		c-1.71,2.01-3.57,3.51-5.59,4.47C257.84,71.2,255.58,71.69,253.07,71.69z M253.81,66.56c3.08,0,5.74-1.41,7.98-4.22l-9.06-9.46
		c-1.98,1.22-3.43,2.44-4.36,3.68s-1.4,2.57-1.4,4.02c0,1.79,0.62,3.23,1.85,4.33C250.06,66.01,251.72,66.56,253.81,66.56z
		 M250.5,39.88c0,1.03,0.26,1.99,0.77,2.88c0.51,0.89,1.61,2.23,3.28,4.02c2.2-1.29,3.79-2.49,4.76-3.59s1.45-2.24,1.45-3.42
		c0-1.29-0.45-2.34-1.34-3.13s-2.08-1.2-3.56-1.2c-1.6,0-2.89,0.41-3.88,1.23C251,37.48,250.5,38.55,250.5,39.88z"/>
	<path d="M286.07,37.15h-12.6v-5.98h31.75v5.98h-12.6v33.91h-6.55V37.15z"/>
	<path d="M182.45,87.96h13.79c3.91,0,6.92,0.9,9.01,2.7s3.13,4.41,3.13,7.83c0,2.05-0.59,3.9-1.77,5.55
		c-1.18,1.65-2.74,2.8-4.67,3.44c2.39,0.46,4.25,1.52,5.58,3.2s2,3.82,2,6.45c0,2.17-0.51,4.07-1.54,5.71s-2.45,2.88-4.27,3.74
		c-1.82,0.86-3.93,1.28-6.33,1.28h-14.93L182.45,87.96L182.45,87.96z M185.41,90.7v15.67h10.83c2.89,0,5.12-0.69,6.7-2.08
		c1.58-1.39,2.37-3.31,2.37-5.79c0-2.51-0.79-4.44-2.37-5.79c-1.58-1.35-3.81-2.02-6.7-2.02L185.41,90.7L185.41,90.7z
		 M185.41,109.11v16.02h11.97c2.85,0,5.07-0.7,6.67-2.11s2.39-3.38,2.39-5.93c0-5.32-3.4-7.98-10.2-7.98L185.41,109.11
		L185.41,109.11z"/>
	<path d="M237.45,98.45v29.41h-2.34l-0.46-3.65c-3.46,2.81-7.03,4.22-10.72,4.22c-3.27,0-5.74-0.98-7.41-2.94s-2.51-4.85-2.51-8.69
		V98.45h2.85v18.07c0,6.16,2.58,9.23,7.75,9.23c3.38,0,6.71-1.39,9.97-4.16V98.45L237.45,98.45L237.45,98.45z"/>
	<path d="M251.47,128.43c-1.98,0-3.77-0.22-5.39-0.66c-1.62-0.44-3.2-1.13-4.76-2.08l0.97-2.34c3.12,1.67,6.12,2.51,9,2.51
		c2.47,0,4.37-0.48,5.7-1.45s2-2.35,2-4.13c0-1.48-0.52-2.67-1.57-3.56c-1.05-0.89-2.9-1.74-5.56-2.54l-1.54-0.46
		c-2.96-0.87-5.06-1.93-6.3-3.16c-1.24-1.23-1.85-2.88-1.85-4.93c0-2.28,0.88-4.14,2.65-5.59c1.77-1.44,4.04-2.17,6.81-2.17
		c3.31,0,6.42,0.82,9.35,2.45l-0.91,2.28c-2.74-1.44-5.57-2.17-8.49-2.17c-1.98,0-3.55,0.46-4.73,1.37
		c-1.18,0.91-1.77,2.13-1.77,3.65c0,0.95,0.2,1.76,0.6,2.42c0.4,0.67,1.04,1.26,1.94,1.8c0.89,0.53,2.12,1.03,3.68,1.48l1.54,0.46
		c3.31,0.95,5.64,2.06,7.01,3.33s2.05,2.99,2.05,5.16c0,2.55-0.94,4.57-2.82,6.07C257.2,127.68,254.66,128.43,251.47,128.43z"/>
	<path d="M266.17,89.04c0-0.61,0.2-1.1,0.6-1.48c0.4-0.38,0.92-0.57,1.57-0.57s1.17,0.19,1.57,0.57s0.6,0.87,0.6,1.48
		s-0.2,1.1-0.6,1.48c-0.4,0.38-0.92,0.57-1.57,0.57s-1.17-0.19-1.57-0.57C266.38,90.15,266.17,89.65,266.17,89.04z M266.92,98.45
		h2.85v29.41h-2.85V98.45z"/>
	<path d="M276.49,127.86V98.45h2.34l0.4,3.65c3.53-2.81,7.16-4.22,10.89-4.22c3.27,0,5.75,0.98,7.44,2.94s2.54,4.85,2.54,8.69v18.35
		h-2.85v-18.07c0-6.16-2.6-9.23-7.81-9.23c-3.53,0-6.9,1.39-10.09,4.16v23.14L276.49,127.86L276.49,127.86z"/>
	<path d="M318.38,128.43c-2.93,0-5.47-0.66-7.64-1.99s-3.83-3.14-4.99-5.44s-1.74-4.91-1.74-7.84c0-3,0.61-5.67,1.82-8.01
		c1.21-2.34,2.83-4.13,4.84-5.39s4.22-1.88,6.61-1.88c2.47,0,4.62,0.59,6.47,1.77c1.84,1.18,3.26,2.79,4.25,4.84
		s1.48,4.37,1.48,6.95c0,0.84-0.04,1.67-0.11,2.51h-22.46c0.11,2.39,0.68,4.49,1.71,6.3s2.38,3.19,4.08,4.16s3.58,1.45,5.67,1.45
		c1.94,0,3.59-0.18,4.96-0.54s2.81-0.98,4.33-1.85l1.03,2.17c-1.56,0.99-3.14,1.7-4.76,2.14
		C322.32,128.21,320.47,128.43,318.38,128.43z M317.3,100.44c-1.86,0-3.54,0.48-5.04,1.45s-2.71,2.3-3.62,3.99s-1.46,3.58-1.65,5.67
		h19.61v-0.46c0-2.05-0.4-3.91-1.2-5.59c-0.8-1.67-1.89-2.94-3.28-3.79C320.73,100.87,319.12,100.44,317.3,100.44z"/>
	<path d="M343,128.43c-1.98,0-3.77-0.22-5.39-0.66c-1.62-0.44-3.2-1.13-4.76-2.08l0.97-2.34c3.12,1.67,6.12,2.51,9,2.51
		c2.47,0,4.37-0.48,5.7-1.45s2-2.35,2-4.13c0-1.48-0.52-2.67-1.57-3.56c-1.05-0.89-2.9-1.74-5.56-2.54l-1.54-0.46
		c-2.96-0.87-5.06-1.93-6.3-3.16c-1.24-1.23-1.85-2.88-1.85-4.93c0-2.28,0.88-4.14,2.65-5.59c1.77-1.44,4.04-2.17,6.81-2.17
		c3.31,0,6.42,0.82,9.35,2.45l-0.91,2.28c-2.74-1.44-5.57-2.17-8.49-2.17c-1.98,0-3.55,0.46-4.73,1.37
		c-1.18,0.91-1.77,2.13-1.77,3.65c0,0.95,0.2,1.76,0.6,2.42c0.4,0.67,1.04,1.26,1.94,1.8c0.89,0.53,2.12,1.03,3.68,1.48l1.54,0.46
		c3.31,0.95,5.64,2.06,7.01,3.33s2.05,2.99,2.05,5.16c0,2.55-0.94,4.57-2.82,6.07C348.73,127.68,346.19,128.43,343,128.43z"/>
	<path d="M366.54,128.43c-1.98,0-3.77-0.22-5.39-0.66c-1.62-0.44-3.2-1.13-4.76-2.08l0.97-2.34c3.12,1.67,6.12,2.51,9,2.51
		c2.47,0,4.37-0.48,5.7-1.45s2-2.35,2-4.13c0-1.48-0.52-2.67-1.57-3.56c-1.05-0.89-2.9-1.74-5.56-2.54l-1.54-0.46
		c-2.96-0.87-5.06-1.93-6.3-3.16c-1.24-1.23-1.85-2.88-1.85-4.93c0-2.28,0.88-4.14,2.65-5.59c1.77-1.44,4.04-2.17,6.81-2.17
		c3.31,0,6.42,0.82,9.35,2.45l-0.91,2.28c-2.74-1.44-5.57-2.17-8.49-2.17c-1.98,0-3.55,0.46-4.73,1.37
		c-1.18,0.91-1.77,2.13-1.77,3.65c0,0.95,0.2,1.76,0.6,2.42c0.4,0.67,1.04,1.26,1.94,1.8c0.89,0.53,2.12,1.03,3.68,1.48l1.54,0.46
		c3.31,0.95,5.64,2.06,7.01,3.33s2.05,2.99,2.05,5.16c0,2.55-0.94,4.57-2.82,6.07C372.27,127.68,369.73,128.43,366.54,128.43z"/>
</g>
</svg>
