<svg xmlns="http://www.w3.org/2000/svg" viewBox="0 0 95.2 35.1"><title>logo1</title><g id="Layer_2" data-name="Layer 2"><g id="Layer_1-2" data-name="Layer 1"><path d="M26.5,2.5a17.11,17.11,0,0,0-9-2.5A17.78,17.78,0,0,0,8.4,2.5c-.7.5-1.2.9-1.2,1.4S10.7,7,16.8,7,27.6,5.3,27.6,3.6,27.2,2.9,26.5,2.5Zm2.6,1.9a.58.58,0,0,1,.1.4c0,2-5.9,5.4-15.4,5.4-7,0-8.3-2.6-8.3-4.2a2.66,2.66,0,0,1,.7-1.8h0A19.68,19.68,0,0,0,3.7,6.7a3,3,0,0,0-.5,1.1c0,3.4,8.5,5.9,16.5,5.9S32,10.9,32,8.4c0-.8-.3-1.3-1.2-2.3ZM1.7,10A23.09,23.09,0,0,0,.4,13.6a2.5,2.5,0,0,0,.1.9c1.1,2.3,6.5,5.9,19.2,5.9,7.8,0,13.8-1.9,14.8-5.3a4.6,4.6,0,0,0-.1-2.3,12.86,12.86,0,0,0-1.1-3h-.1c.2,4.6-12.5,7.5-18.9,7.5S1.6,14.5,1.6,11A3.74,3.74,0,0,1,1.7,10ZM14,24.6C5,24.6.8,20.4,0,17.5H0a16.12,16.12,0,0,0,.3,3.1,3.22,3.22,0,0,0,.8,1.5c2.2,2.3,7.6,5.4,17,5.4,12.8,0,15.7-4.2,16.3-5.6a13.42,13.42,0,0,0,.7-4.4,2.74,2.74,0,0,0-.1-.9h0C34.4,20,23.4,24.6,14,24.6Zm4.7,7.7c4.3,0,9.1-1.2,11.9-3.5a11.42,11.42,0,0,0,2.2-2.6,21.8,21.8,0,0,0,1-2.2c.1-.1,0-.1,0,0-2.6,3.8-10.3,6.3-18.1,6.3-5.6,0-11.6-1.8-14-5.2h0C3.9,29.7,10.5,32.3,18.7,32.3ZM6.8,31.4a17.39,17.39,0,0,0,22.3-.7h0a22,22,0,0,1-11.6,2.9c-5.4,0-8.8-1.2-10.7-2.3Z" style="fill:#fff"/><path d="M48.2,6.2h1.6l3.6,9.6H51.7l-.8-2.3H47l-.7,2.3H44.6Zm-.7,5.9h3L49,7.8Z" style="fill:#fff"/><path d="M55.6,7.6h-3V6.2h7.6V7.6h-3v8.2H55.6Z" style="fill:#fff"/><path d="M63.2,15.9a3.08,3.08,0,0,1-2.2-.7,2.3,2.3,0,0,1-.8-1.8,2.53,2.53,0,0,1,.5-1.5,5.29,5.29,0,0,1,1.6-1.3l-.9-1.2a2,2,0,0,1-.3-1.1,2.09,2.09,0,0,1,.8-1.6,3.31,3.31,0,0,1,3.8,0,1.7,1.7,0,0,1,.7,1.5c0,.9-.7,1.8-2.1,2.5L66,12.6l.6-.9.5-1.1h1.5l-.9,1.5a6.68,6.68,0,0,1-.8,1.4l2.3,2.3H67.4l-1.3-1.3a4.43,4.43,0,0,1-1.3,1.1A4,4,0,0,1,63.2,15.9Zm.1-1.2a2.42,2.42,0,0,0,1.9-1l-2.1-2.3a5,5,0,0,0-1.1.9,1.68,1.68,0,0,0-.3,1,1.29,1.29,0,0,0,.4,1A1.6,1.6,0,0,0,63.3,14.7Zm-.8-6.4a1.94,1.94,0,0,0,.2.7l.8,1a5.93,5.93,0,0,0,1.1-.9,1,1,0,0,0,.4-.8,1.12,1.12,0,0,0-.3-.8,1.3,1.3,0,0,0-1.84,0A1.32,1.32,0,0,0,62.5,8.3Z" style="fill:#fff"/><path d="M71.3,7.6h-3V6.2h7.6V7.6h-3v8.2H71.3Z" style="fill:#fff"/><path d="M45.6,18.9H49a3.65,3.65,0,0,1,2.2.6,2.49,2.49,0,0,1,.7,1.9,2,2,0,0,1-.4,1.3,2.11,2.11,0,0,1-1.1.8,2.88,2.88,0,0,1,1.3.8,2.5,2.5,0,0,1,.5,1.6,2,2,0,0,1-.4,1.3,2.18,2.18,0,0,1-1,.9,4,4,0,0,1-1.6.3H45.6Zm.7.6v3.8H49a2.48,2.48,0,0,0,1.6-.5,1.93,1.93,0,0,0,0-2.8,2.48,2.48,0,0,0-1.6-.5Zm0,4.4v3.9h2.9a2.85,2.85,0,0,0,1.7-.5,1.93,1.93,0,0,0,.6-1.5c0-1.2-.9-1.9-2.5-1.9Z" style="fill:#fff"/><path d="M59.3,21.4v7h-.5l-.2-.8a4.37,4.37,0,0,1-2.6,1,2.46,2.46,0,0,1-1.8-.7,3.33,3.33,0,0,1-.6-2.1V21.4h.7v4.3c0,1.5.6,2.2,1.9,2.2a3.59,3.59,0,0,0,2.4-1V21.4Z" style="fill:#fff"/><path d="M63.2,28.6l-1.3-.2-1.1-.5.2-.6a4.86,4.86,0,0,0,2.2.6,2.83,2.83,0,0,0,1.4-.3A1.09,1.09,0,0,0,65,26.09a1.2,1.2,0,0,0-.26-.29,2.34,2.34,0,0,0-1.4-.6l-.4-.2a3.51,3.51,0,0,1-1.5-.7,1.83,1.83,0,0,1,.2-2.5,2.28,2.28,0,0,1,1.7-.5,4.19,4.19,0,0,1,2.2.5l-.2.6a3.51,3.51,0,0,0-2-.5,2.11,2.11,0,0,0-1.2.3,1,1,0,0,0-.4.9.74.74,0,0,0,.1.5l.5.5.9.3h.4a7.14,7.14,0,0,1,1.7.8,1.89,1.89,0,0,1,.5,1.3,1.68,1.68,0,0,1-.7,1.4A2.93,2.93,0,0,1,63.2,28.6Z" style="fill:#fff"/><path d="M67,19.1c0-.1.1-.2.2-.3l.3-.2a.48.48,0,0,1,.4.2c.1.1.2.2.2.3a.48.48,0,0,1-.2.4h-.7A.48.48,0,0,1,67,19.1Zm.2,2.3h.7v7h-.7Z" style="fill:#fff"/><path d="M69.8,28.4v-7h.5v.9a4.3,4.3,0,0,1,2.7-1,2.11,2.11,0,0,1,1.8.7,2.77,2.77,0,0,1,.6,2v4.4h-.7V24.1c0-1.5-.6-2.2-1.9-2.2a3.39,3.39,0,0,0-2.4,1v5.5Z" style="fill:#fff"/><path d="M80.4,28.6a3.47,3.47,0,0,1-1.8-.5,2.5,2.5,0,0,1-1.2-1.3,4.08,4.08,0,0,1-.5-1.9,3.83,3.83,0,0,1,.5-1.9,3,3,0,0,1,1.2-1.3,2.66,2.66,0,0,1,1.6-.4,2.35,2.35,0,0,1,1.5.4,2.91,2.91,0,0,1,1.1,1.1,4.69,4.69,0,0,1,.3,1.7v.6H77.6a3.22,3.22,0,0,0,.5,1.5,2.18,2.18,0,0,0,.9,1,3.39,3.39,0,0,0,1.4.3h1.2l1.1-.4.2.5-1.1.5Zm-.2-6.7a2.79,2.79,0,0,0-1.3.3,2.69,2.69,0,0,0-.8,1,2,2,0,0,0-.4,1.3h4.7a2.79,2.79,0,0,0-.3-1.3,1.85,1.85,0,0,0-.8-.9A2,2,0,0,0,80.2,21.9Z" style="fill:#fff"/><path d="M86.6,28.6l-1.3-.2-1.1-.5.2-.6a4.86,4.86,0,0,0,2.2.6,2.61,2.61,0,0,0,1.4-.3,1.09,1.09,0,0,0,.36-1.51,1.2,1.2,0,0,0-.26-.29,2.34,2.34,0,0,0-1.4-.6l-.3-.2a3.35,3.35,0,0,1-1.6-.7,1.83,1.83,0,0,1,.2-2.5,2.28,2.28,0,0,1,1.7-.5,4.8,4.8,0,0,1,2.3.5l-.3.6a3.51,3.51,0,0,0-2-.5,2.11,2.11,0,0,0-1.2.3,1,1,0,0,0-.4.9.74.74,0,0,0,.1.5c.1.2.3.3.5.5l.9.3H87a7.14,7.14,0,0,1,1.7.8,1.89,1.89,0,0,1,.5,1.3,1.68,1.68,0,0,1-.7,1.4A2.93,2.93,0,0,1,86.6,28.6Z" style="fill:#fff"/><path d="M92.6,28.6l-1.3-.2-1.1-.5.2-.6a4.86,4.86,0,0,0,2.2.6,2.61,2.61,0,0,0,1.4-.3,1.09,1.09,0,0,0,.36-1.51,1.2,1.2,0,0,0-.26-.29,2.34,2.34,0,0,0-1.4-.6l-.3-.2a3.35,3.35,0,0,1-1.6-.7,1.83,1.83,0,0,1,.2-2.5,2.28,2.28,0,0,1,1.7-.5,4.19,4.19,0,0,1,2.2.5l-.2.6a3.51,3.51,0,0,0-2-.5,2.11,2.11,0,0,0-1.2.3,1,1,0,0,0-.4.9.74.74,0,0,0,.1.5c.1.2.3.3.5.5l.9.3H93a7.14,7.14,0,0,1,1.7.8,1.89,1.89,0,0,1,.5,1.3,1.68,1.68,0,0,1-.7,1.4A2.93,2.93,0,0,1,92.6,28.6Z" style="fill:#fff"/></g></g></svg>